<?xml version="1.0" encoding="UTF-8"?>
<svg xmlns="http://www.w3.org/2000/svg" xmlns:xlink="http://www.w3.org/1999/xlink" width="555pt" height="555pt" viewBox="0 0 555 555" version="1.1">
<defs>
<clipPath id="clip1">
  <path d="M 22.199219 15.296875 L 539.714844 15.296875 L 539.714844 536.960938 L 22.199219 536.960938 L 22.199219 15.296875 Z M 22.199219 15.296875 "/>
</clipPath>
<clipPath id="clip2">
  <path d="M 6.9375 6.9375 L 548.0625 6.9375 L 548.0625 548.0625 L 6.9375 548.0625 L 6.9375 6.9375 Z M 6.9375 6.9375 "/>
</clipPath>
<clipPath id="clip3">
  <path d="M 398.210938 308.023438 L 417.636719 308.023438 L 417.636719 328.839844 L 398.210938 328.839844 L 398.210938 308.023438 Z M 398.210938 308.023438 "/>
</clipPath>
<clipPath id="clip4">
  <path d="M 6.9375 6.9375 L 548.0625 6.9375 L 548.0625 548.0625 L 6.9375 548.0625 L 6.9375 6.9375 Z M 6.9375 6.9375 "/>
</clipPath>
<clipPath id="clip5">
  <path d="M 8.324219 288.601562 L 18.039062 288.601562 L 18.039062 306.636719 L 8.324219 306.636719 L 8.324219 288.601562 Z M 8.324219 288.601562 "/>
</clipPath>
<clipPath id="clip6">
  <path d="M 6.9375 6.9375 L 548.0625 6.9375 L 548.0625 548.0625 L 6.9375 548.0625 L 6.9375 6.9375 Z M 6.9375 6.9375 "/>
</clipPath>
<clipPath id="clip7">
  <path d="M 140.136719 288.601562 L 149.851562 288.601562 L 149.851562 306.636719 L 140.136719 306.636719 L 140.136719 288.601562 Z M 140.136719 288.601562 "/>
</clipPath>
<clipPath id="clip8">
  <path d="M 6.9375 6.9375 L 548.0625 6.9375 L 548.0625 548.0625 L 6.9375 548.0625 L 6.9375 6.9375 Z M 6.9375 6.9375 "/>
</clipPath>
<clipPath id="clip9">
  <path d="M 230.324219 527.25 L 240.039062 527.25 L 240.039062 545.289062 L 230.324219 545.289062 L 230.324219 527.25 Z M 230.324219 527.25 "/>
</clipPath>
<clipPath id="clip10">
  <path d="M 6.9375 6.9375 L 548.0625 6.9375 L 548.0625 548.0625 L 6.9375 548.0625 L 6.9375 6.9375 Z M 6.9375 6.9375 "/>
</clipPath>
<clipPath id="clip11">
  <path d="M 230.324219 396.824219 L 240.039062 396.824219 L 240.039062 414.863281 L 230.324219 414.863281 L 230.324219 396.824219 Z M 230.324219 396.824219 "/>
</clipPath>
<clipPath id="clip12">
  <path d="M 6.9375 6.9375 L 548.0625 6.9375 L 548.0625 548.0625 L 6.9375 548.0625 L 6.9375 6.9375 Z M 6.9375 6.9375 "/>
</clipPath>
</defs>
<g id="surface0">
<g clip-path="url(#clip1)" clip-rule="nonzero">
<path style="fill: none; stroke-width: 13.875; stroke-linecap: butt; stroke-linejoin: round; stroke: rgb(100%,0%,0%); stroke-opacity: 1;stroke-miterlimit: 10; " d="M 242.8125 4183.320312 L 270.546875 3933.554688 L 298.320312 3683.828125 L 326.054688 3406.328125 L 353.828125 3128.828125 L 409.296875 2643.203125 L 450.9375 2157.578125 L 478.671875 1893.945312 L 506.445312 1644.179688 L 534.179688 1394.453125 L 561.953125 1172.421875 L 617.421875 783.945312 L 672.929688 478.671875 L 728.4375 270.546875 L 783.945312 187.304688 L 811.679688 187.304688 L 825.546875 201.171875 L 825.546875 215.078125 L 853.320312 270.546875 L 881.054688 339.921875 L 936.5625 575.820312 L 992.070312 894.921875 L 1047.578125 1311.171875 L 1103.046875 1796.796875 L 1130.820312 2060.429688 L 1158.554688 2324.0625 L 1172.421875 2587.695312 L 1200.195312 2865.195312 L 1227.929688 3142.695312 L 1255.703125 3420.195312 L 1283.4375 3697.695312 L 1311.171875 3947.421875 L 1366.679688 4363.671875 L 1422.1875 4724.453125 L 1477.695312 5043.554688 L 1533.203125 5251.679688 L 1560.9375 5321.054688 L 1588.671875 5362.695312 L 1616.445312 5362.695312 L 1630.3125 5348.828125 L 1644.179688 5334.921875 L 1685.820312 5196.171875 L 1741.328125 4960.3125 L 1796.796875 4655.078125 L 1838.4375 4294.296875 L 1866.171875 4044.570312 L 1893.945312 3780.9375 L 1935.546875 3517.304688 L 1963.320312 3225.9375 L 2004.921875 2740.3125 L 2060.429688 2240.820312 L 2088.203125 1963.320312 L 2115.9375 1699.6875 L 2143.671875 1449.921875 L 2171.445312 1214.0625 L 2226.953125 839.453125 L 2268.554688 534.179688 L 2324.0625 312.1875 L 2379.570312 201.171875 L 2393.4375 187.304688 L 2421.171875 187.304688 L 2435.078125 201.171875 L 2462.8125 242.8125 L 2490.546875 312.1875 L 2546.054688 534.179688 L 2601.5625 867.1875 L 2643.203125 1241.796875 L 2698.671875 1685.820312 L 2726.445312 1935.546875 L 2754.179688 2199.179688 L 2781.953125 2476.679688 L 2809.6875 2754.179688 L 2837.421875 2518.320312 L 2865.195312 2240.820312 L 2892.929688 1963.320312 L 2920.703125 1699.6875 L 2976.171875 1269.570312 L 3017.8125 894.921875 L 3073.320312 561.953125 L 3128.828125 339.921875 L 3156.5625 256.679688 L 3184.296875 215.078125 L 3198.203125 201.171875 L 3212.070312 187.304688 L 3225.9375 187.304688 L 3239.804688 201.171875 L 3295.3125 298.320312 L 3336.953125 506.445312 L 3392.421875 811.679688 L 3447.929688 1186.328125 L 3475.703125 1436.054688 L 3503.4375 1685.820312 L 3531.171875 1963.320312 L 3558.945312 2240.820312 L 3586.679688 2490.546875 L 3642.1875 3017.8125 L 3669.921875 3281.445312 L 3697.695312 3545.078125 L 3725.429688 3808.671875 L 3753.203125 4058.4375 L 3780.9375 4294.296875 L 3822.578125 4668.945312 L 3878.046875 4974.179688 L 3933.554688 5210.078125 L 3989.0625 5348.828125 L 4002.929688 5348.828125 L 4016.796875 5362.695312 L 4030.703125 5362.695312 L 4044.570312 5348.828125 L 4058.4375 5321.054688 L 4086.171875 5265.546875 L 4141.679688 5057.421875 L 4197.1875 4752.1875 L 4252.695312 4377.578125 L 4308.203125 3919.6875 L 4335.9375 3669.921875 L 4363.671875 3406.328125 L 4391.445312 3128.828125 L 4419.179688 2851.328125 L 4446.953125 2587.695312 L 4474.6875 2324.0625 L 4488.554688 2060.429688 L 4516.328125 1810.703125 L 4571.796875 1325.078125 L 4627.304688 908.828125 L 4682.8125 575.820312 L 4738.320312 339.921875 L 4766.054688 270.546875 L 4793.828125 215.078125 L 4793.828125 201.171875 L 4807.695312 187.304688 L 4835.429688 187.304688 L 4890.9375 284.453125 L 4946.445312 492.578125 L 5001.953125 770.078125 L 5057.421875 1130.820312 L 5112.929688 1588.671875 L 5154.570312 2102.070312 L 5182.304688 2351.796875 L 5210.078125 2615.429688 L 5237.8125 2879.0625 L 5265.546875 3142.695312 L 5293.320312 3420.195312 L 5321.054688 3683.828125 L 5348.828125 3933.554688 L 5376.5625 4183.320312 " transform="matrix(0.1,0,0,-0.1,0,555)"/>
</g>
<g clip-path="url(#clip2)" clip-rule="nonzero">
<path style="fill: none; stroke-width: 13.875; stroke-linecap: square; stroke-linejoin: miter; stroke: rgb(0%,0%,0%); stroke-opacity: 1;stroke-miterlimit: 10; " d="M 5112.929688 2768.046875 L 5112.929688 2740.3125 " transform="matrix(0.1,0,0,-0.1,0,555)"/>
<path style="fill: none; stroke-width: 13.875; stroke-linecap: square; stroke-linejoin: miter; stroke: rgb(0%,0%,0%); stroke-opacity: 1;stroke-miterlimit: 10; " d="M 4863.203125 2768.046875 L 4863.203125 2740.3125 " transform="matrix(0.1,0,0,-0.1,0,555)"/>
<path style="fill: none; stroke-width: 13.875; stroke-linecap: square; stroke-linejoin: miter; stroke: rgb(0%,0%,0%); stroke-opacity: 1;stroke-miterlimit: 10; " d="M 4599.570312 2768.046875 L 4599.570312 2740.3125 " transform="matrix(0.1,0,0,-0.1,0,555)"/>
<path style="fill: none; stroke-width: 13.875; stroke-linecap: square; stroke-linejoin: miter; stroke: rgb(0%,0%,0%); stroke-opacity: 1;stroke-miterlimit: 10; " d="M 4349.804688 2768.046875 L 4349.804688 2740.3125 " transform="matrix(0.1,0,0,-0.1,0,555)"/>
<path style="fill: none; stroke-width: 13.875; stroke-linecap: square; stroke-linejoin: miter; stroke: rgb(0%,0%,0%); stroke-opacity: 1;stroke-miterlimit: 10; " d="M 3836.445312 2768.046875 L 3836.445312 2740.3125 " transform="matrix(0.1,0,0,-0.1,0,555)"/>
<path style="fill: none; stroke-width: 13.875; stroke-linecap: square; stroke-linejoin: miter; stroke: rgb(0%,0%,0%); stroke-opacity: 1;stroke-miterlimit: 10; " d="M 3572.8125 2768.046875 L 3572.8125 2740.3125 " transform="matrix(0.1,0,0,-0.1,0,555)"/>
<path style="fill: none; stroke-width: 13.875; stroke-linecap: square; stroke-linejoin: miter; stroke: rgb(0%,0%,0%); stroke-opacity: 1;stroke-miterlimit: 10; " d="M 3323.046875 2768.046875 L 3323.046875 2740.3125 " transform="matrix(0.1,0,0,-0.1,0,555)"/>
<path style="fill: none; stroke-width: 13.875; stroke-linecap: square; stroke-linejoin: miter; stroke: rgb(0%,0%,0%); stroke-opacity: 1;stroke-miterlimit: 10; " d="M 3059.453125 2768.046875 L 3059.453125 2740.3125 " transform="matrix(0.1,0,0,-0.1,0,555)"/>
<path style="fill: none; stroke-width: 13.875; stroke-linecap: square; stroke-linejoin: miter; stroke: rgb(0%,0%,0%); stroke-opacity: 1;stroke-miterlimit: 10; " d="M 2546.054688 2768.046875 L 2546.054688 2740.3125 " transform="matrix(0.1,0,0,-0.1,0,555)"/>
<path style="fill: none; stroke-width: 13.875; stroke-linecap: square; stroke-linejoin: miter; stroke: rgb(0%,0%,0%); stroke-opacity: 1;stroke-miterlimit: 10; " d="M 2296.328125 2768.046875 L 2296.328125 2740.3125 " transform="matrix(0.1,0,0,-0.1,0,555)"/>
<path style="fill: none; stroke-width: 13.875; stroke-linecap: square; stroke-linejoin: miter; stroke: rgb(0%,0%,0%); stroke-opacity: 1;stroke-miterlimit: 10; " d="M 2032.695312 2768.046875 L 2032.695312 2740.3125 " transform="matrix(0.1,0,0,-0.1,0,555)"/>
<path style="fill: none; stroke-width: 13.875; stroke-linecap: square; stroke-linejoin: miter; stroke: rgb(0%,0%,0%); stroke-opacity: 1;stroke-miterlimit: 10; " d="M 1782.929688 2768.046875 L 1782.929688 2740.3125 " transform="matrix(0.1,0,0,-0.1,0,555)"/>
<path style="fill: none; stroke-width: 13.875; stroke-linecap: square; stroke-linejoin: miter; stroke: rgb(0%,0%,0%); stroke-opacity: 1;stroke-miterlimit: 10; " d="M 1269.570312 2768.046875 L 1269.570312 2740.3125 " transform="matrix(0.1,0,0,-0.1,0,555)"/>
<path style="fill: none; stroke-width: 13.875; stroke-linecap: square; stroke-linejoin: miter; stroke: rgb(0%,0%,0%); stroke-opacity: 1;stroke-miterlimit: 10; " d="M 1005.9375 2768.046875 L 1005.9375 2740.3125 " transform="matrix(0.1,0,0,-0.1,0,555)"/>
<path style="fill: none; stroke-width: 13.875; stroke-linecap: square; stroke-linejoin: miter; stroke: rgb(0%,0%,0%); stroke-opacity: 1;stroke-miterlimit: 10; " d="M 756.171875 2768.046875 L 756.171875 2740.3125 " transform="matrix(0.1,0,0,-0.1,0,555)"/>
<path style="fill: none; stroke-width: 13.875; stroke-linecap: square; stroke-linejoin: miter; stroke: rgb(0%,0%,0%); stroke-opacity: 1;stroke-miterlimit: 10; " d="M 492.578125 2768.046875 L 492.578125 2740.3125 " transform="matrix(0.1,0,0,-0.1,0,555)"/>
<path style="fill: none; stroke-width: 13.875; stroke-linecap: square; stroke-linejoin: miter; stroke: rgb(0%,0%,0%); stroke-opacity: 1;stroke-miterlimit: 10; " d="M 242.8125 2768.046875 L 5376.5625 2768.046875 " transform="matrix(0.1,0,0,-0.1,0,555)"/>
</g>
<g clip-path="url(#clip3)" clip-rule="nonzero">
<path style=" stroke:none;fill-rule: nonzero; fill: rgb(0%,0%,0%); fill-opacity: 1;" d="M 408.507812 316.71875 C 408.742188 317.027344 408.886719 317.316406 408.976562 317.621094 C 409.046875 317.839844 409.101562 318.398438 409.175781 319.300781 L 410.167969 318.128906 C 410.4375 317.855469 410.742188 317.585938 411.085938 317.332031 C 411.429688 317.0625 411.71875 316.902344 411.96875 316.792969 C 412.113281 316.738281 412.277344 316.71875 412.4375 316.71875 C 412.691406 316.71875 412.890625 316.773438 413.015625 316.917969 C 413.125 317.046875 413.179688 317.207031 413.140625 317.40625 C 413.089844 317.640625 413.015625 317.785156 412.90625 317.875 C 412.710938 318.019531 412.511719 318.089844 412.3125 318.089844 C 412.1875 318.089844 412.058594 318.054688 411.914062 318 C 411.664062 317.910156 411.484375 317.875 411.394531 317.875 C 411.25 317.875 411.066406 317.945312 410.851562 318.109375 C 410.417969 318.414062 409.859375 319.011719 409.191406 319.878906 L 409.300781 322.90625 C 409.320312 323.375 409.355469 323.648438 409.425781 323.738281 C 409.480469 323.84375 409.554688 323.882812 409.625 323.882812 C 409.75 323.882812 409.894531 323.808594 410.09375 323.683594 C 410.472656 323.414062 410.816406 323.050781 411.140625 322.617188 L 411.410156 322.78125 C 410.90625 323.464844 410.3125 324.042969 409.660156 324.511719 C 409.28125 324.746094 408.976562 324.875 408.757812 324.875 C 408.433594 324.875 408.199219 324.691406 408.09375 324.332031 C 408 324.117188 407.949219 323.125 407.910156 321.375 C 406.683594 322.980469 405.730469 323.988281 405.097656 324.457031 C 404.683594 324.730469 404.304688 324.875 403.960938 324.875 C 403.746094 324.875 403.546875 324.785156 403.402344 324.640625 C 403.277344 324.511719 403.238281 324.332031 403.292969 324.117188 C 403.332031 323.933594 403.421875 323.773438 403.582031 323.628906 C 403.726562 323.503906 403.890625 323.449219 404.070312 323.449219 C 404.269531 323.449219 404.449219 323.539062 404.609375 323.71875 C 404.738281 323.863281 404.84375 323.933594 404.933594 323.933594 C 404.988281 323.933594 405.097656 323.882812 405.222656 323.792969 C 405.546875 323.558594 406.019531 323.085938 406.648438 322.347656 C 407.261719 321.609375 407.695312 321.066406 407.894531 320.742188 C 407.820312 319.316406 407.765625 318.558594 407.765625 318.46875 C 407.695312 318.089844 407.585938 317.820312 407.386719 317.660156 C 407.207031 317.515625 406.902344 317.425781 406.488281 317.425781 C 406.34375 317.425781 406.199219 317.425781 406.019531 317.441406 L 406.070312 317.136719 "/>
</g>
<g clip-path="url(#clip4)" clip-rule="nonzero">
<path style="fill: none; stroke-width: 13.875; stroke-linecap: square; stroke-linejoin: miter; stroke: rgb(0%,0%,0%); stroke-opacity: 1;stroke-miterlimit: 10; " d="M 242.8125 2768.046875 L 242.8125 2712.578125 " transform="matrix(0.1,0,0,-0.1,0,555)"/>
</g>
<g clip-path="url(#clip5)" clip-rule="nonzero">
<path style=" stroke:none;fill-rule: nonzero; fill: rgb(0%,0%,0%); fill-opacity: 1;" d="M 11.390625 298.917969 L 23.296875 298.917969 L 23.296875 297.980469 L 11.390625 297.980469 L 11.390625 298.917969 Z M 11.390625 298.917969 "/>
</g>
<g clip-path="url(#clip6)" clip-rule="nonzero">
<path style=" stroke:none;fill-rule: nonzero; fill: rgb(0%,0%,0%); fill-opacity: 1;" d="M 22.921875 293.09375 L 25.828125 291.6875 L 26.117188 291.6875 L 26.117188 301.769531 C 26.117188 302.4375 26.132812 302.851562 26.207031 303.015625 C 26.261719 303.175781 26.367188 303.304688 26.546875 303.394531 C 26.730469 303.484375 27.070312 303.539062 27.613281 303.539062 L 27.613281 303.863281 L 23.121094 303.863281 L 23.121094 303.539062 C 23.699219 303.539062 24.058594 303.484375 24.222656 303.394531 C 24.382812 303.320312 24.492188 303.195312 24.5625 303.050781 C 24.636719 302.90625 24.65625 302.492188 24.65625 301.769531 L 24.65625 295.3125 C 24.65625 294.445312 24.636719 293.886719 24.5625 293.652344 C 24.527344 293.453125 24.457031 293.328125 24.347656 293.238281 C 24.238281 293.148438 24.113281 293.09375 23.949219 293.09375 C 23.734375 293.09375 23.429688 293.183594 23.050781 293.363281 "/>
<path style=" stroke:none;fill-rule: nonzero; fill: rgb(0%,0%,0%); fill-opacity: 1;" d="M 30.480469 297.964844 C 30.480469 296.609375 30.679688 295.4375 31.09375 294.445312 C 31.507812 293.472656 32.050781 292.734375 32.734375 292.246094 C 33.257812 291.867188 33.800781 291.6875 34.359375 291.6875 C 35.277344 291.6875 36.109375 292.15625 36.828125 293.074219 C 37.75 294.230469 38.199219 295.800781 38.199219 297.785156 C 38.199219 299.171875 38.003906 300.34375 37.605469 301.320312 C 37.207031 302.292969 36.683594 302.996094 36.070312 303.429688 C 35.457031 303.863281 34.84375 304.058594 34.285156 304.058594 C 33.132812 304.058594 32.195312 303.410156 31.4375 302.058594 C 30.789062 300.941406 30.480469 299.570312 30.480469 297.964844 Z M 32.195312 298.199219 C 32.195312 299.839844 32.410156 301.175781 32.808594 302.21875 C 33.148438 303.085938 33.636719 303.519531 34.304688 303.519531 C 34.628906 303.519531 34.953125 303.394531 35.296875 303.105469 C 35.640625 302.816406 35.890625 302.347656 36.070312 301.660156 C 36.34375 300.652344 36.46875 299.246094 36.46875 297.40625 C 36.46875 296.035156 36.324219 294.898438 36.054688 293.996094 C 35.835938 293.308594 35.566406 292.839844 35.222656 292.550781 C 34.988281 292.355469 34.703125 292.265625 34.359375 292.265625 C 33.960938 292.265625 33.601562 292.445312 33.292969 292.804688 C 32.863281 293.292969 32.574219 294.050781 32.429688 295.097656 C 32.285156 296.140625 32.195312 297.171875 32.195312 298.199219 "/>
<path style="fill: none; stroke-width: 13.875; stroke-linecap: square; stroke-linejoin: miter; stroke: rgb(0%,0%,0%); stroke-opacity: 1;stroke-miterlimit: 10; " d="M 1519.296875 2768.046875 L 1519.296875 2712.578125 " transform="matrix(0.1,0,0,-0.1,0,555)"/>
</g>
<g clip-path="url(#clip7)" clip-rule="nonzero">
<path style=" stroke:none;fill-rule: nonzero; fill: rgb(0%,0%,0%); fill-opacity: 1;" d="M 143.203125 298.917969 L 155.109375 298.917969 L 155.109375 297.980469 L 143.203125 297.980469 L 143.203125 298.917969 Z M 143.203125 298.917969 "/>
</g>
<g clip-path="url(#clip8)" clip-rule="nonzero">
<path style=" stroke:none;fill-rule: nonzero; fill: rgb(0%,0%,0%); fill-opacity: 1;" d="M 160.453125 291.921875 L 159.75 293.417969 L 156.160156 293.417969 L 155.382812 295.023438 C 156.9375 295.257812 158.164062 295.835938 159.082031 296.753906 C 159.859375 297.566406 160.253906 298.503906 160.253906 299.585938 C 160.253906 300.21875 160.128906 300.796875 159.875 301.320312 C 159.605469 301.859375 159.300781 302.3125 158.902344 302.691406 C 158.523438 303.066406 158.089844 303.375 157.601562 303.589844 C 156.9375 303.898438 156.25 304.058594 155.527344 304.058594 C 154.808594 304.058594 154.300781 303.933594 153.960938 303.71875 C 153.636719 303.464844 153.472656 303.210938 153.472656 302.90625 C 153.472656 302.742188 153.542969 302.597656 153.6875 302.472656 C 153.816406 302.347656 153.996094 302.292969 154.195312 302.292969 C 154.339844 302.292969 154.484375 302.3125 154.589844 302.363281 C 154.699219 302.402344 154.898438 302.527344 155.1875 302.726562 C 155.621094 303.015625 156.070312 303.175781 156.519531 303.175781 C 157.207031 303.175781 157.800781 302.925781 158.324219 302.402344 C 158.847656 301.878906 159.101562 301.246094 159.101562 300.488281 C 159.101562 299.765625 158.882812 299.101562 158.414062 298.46875 C 157.945312 297.855469 157.316406 297.367188 156.484375 297.027344 C 155.855469 296.753906 154.988281 296.609375 153.871094 296.574219 L 156.160156 291.921875 "/>
<path style="fill: none; stroke-width: 13.875; stroke-linecap: square; stroke-linejoin: miter; stroke: rgb(0%,0%,0%); stroke-opacity: 1;stroke-miterlimit: 10; " d="M 2809.6875 2768.046875 L 2809.6875 2712.578125 " transform="matrix(0.1,0,0,-0.1,0,555)"/>
<path style=" stroke:none;fill-rule: nonzero; fill: rgb(0%,0%,0%); fill-opacity: 1;" d="M 267.050781 293.800781 C 267.050781 292.449219 267.246094 291.277344 267.664062 290.285156 C 268.078125 289.308594 268.617188 288.570312 269.304688 288.082031 C 269.828125 287.703125 270.367188 287.523438 270.925781 287.523438 C 271.847656 287.523438 272.675781 287.992188 273.398438 288.914062 C 274.320312 290.066406 274.769531 291.636719 274.769531 293.621094 C 274.769531 295.011719 274.570312 296.183594 274.175781 297.15625 C 273.777344 298.128906 273.253906 298.835938 272.640625 299.265625 C 272.027344 299.699219 271.414062 299.898438 270.855469 299.898438 C 269.699219 299.898438 268.761719 299.25 268.003906 297.894531 C 267.355469 296.777344 267.050781 295.40625 267.050781 293.800781 Z M 268.761719 294.035156 C 268.761719 295.675781 268.980469 297.011719 269.375 298.058594 C 269.71875 298.925781 270.207031 299.355469 270.875 299.355469 C 271.199219 299.355469 271.523438 299.230469 271.867188 298.941406 C 272.207031 298.652344 272.460938 298.183594 272.640625 297.5 C 272.910156 296.488281 273.039062 295.082031 273.039062 293.242188 C 273.039062 291.871094 272.894531 290.734375 272.621094 289.832031 C 272.40625 289.148438 272.136719 288.679688 271.792969 288.390625 C 271.558594 288.191406 271.269531 288.101562 270.925781 288.101562 C 270.53125 288.101562 270.167969 288.28125 269.863281 288.644531 C 269.429688 289.128906 269.140625 289.886719 268.996094 290.933594 C 268.851562 291.980469 268.761719 293.007812 268.761719 294.035156 "/>
<path style="fill: none; stroke-width: 13.875; stroke-linecap: square; stroke-linejoin: miter; stroke: rgb(0%,0%,0%); stroke-opacity: 1;stroke-miterlimit: 10; " d="M 4086.171875 2768.046875 L 4086.171875 2712.578125 " transform="matrix(0.1,0,0,-0.1,0,555)"/>
<path style=" stroke:none;fill-rule: nonzero; fill: rgb(0%,0%,0%); fill-opacity: 1;" d="M 411.589844 291.921875 L 410.886719 293.417969 L 407.296875 293.417969 L 406.523438 295.023438 C 408.074219 295.257812 409.300781 295.835938 410.21875 296.753906 C 410.996094 297.566406 411.394531 298.503906 411.394531 299.585938 C 411.394531 300.21875 411.265625 300.796875 411.015625 301.320312 C 410.742188 301.859375 410.4375 302.3125 410.039062 302.691406 C 409.660156 303.066406 409.226562 303.375 408.742188 303.589844 C 408.074219 303.898438 407.386719 304.058594 406.667969 304.058594 C 405.945312 304.058594 405.441406 303.933594 405.097656 303.71875 C 404.773438 303.464844 404.609375 303.210938 404.609375 302.90625 C 404.609375 302.742188 404.683594 302.597656 404.828125 302.472656 C 404.953125 302.347656 405.132812 302.292969 405.332031 302.292969 C 405.476562 302.292969 405.621094 302.3125 405.730469 302.363281 C 405.835938 302.402344 406.035156 302.527344 406.324219 302.726562 C 406.757812 303.015625 407.207031 303.175781 407.660156 303.175781 C 408.34375 303.175781 408.941406 302.925781 409.460938 302.402344 C 409.984375 301.878906 410.238281 301.246094 410.238281 300.488281 C 410.238281 299.765625 410.023438 299.101562 409.554688 298.46875 C 409.085938 297.855469 408.453125 297.367188 407.621094 297.027344 C 406.992188 296.753906 406.125 296.609375 405.007812 296.574219 L 407.296875 291.921875 "/>
<path style="fill: none; stroke-width: 13.875; stroke-linecap: square; stroke-linejoin: miter; stroke: rgb(0%,0%,0%); stroke-opacity: 1;stroke-miterlimit: 10; " d="M 5376.5625 2768.046875 L 5376.5625 2712.578125 " transform="matrix(0.1,0,0,-0.1,0,555)"/>
<path style=" stroke:none;fill-rule: nonzero; fill: rgb(0%,0%,0%); fill-opacity: 1;" d="M 527.972656 293.09375 L 530.878906 291.6875 L 531.167969 291.6875 L 531.167969 301.769531 C 531.167969 302.4375 531.183594 302.851562 531.257812 303.015625 C 531.308594 303.175781 531.417969 303.304688 531.597656 303.394531 C 531.78125 303.484375 532.121094 303.539062 532.664062 303.539062 L 532.664062 303.863281 L 528.171875 303.863281 L 528.171875 303.539062 C 528.75 303.539062 529.109375 303.484375 529.273438 303.394531 C 529.433594 303.320312 529.542969 303.195312 529.613281 303.050781 C 529.6875 302.90625 529.703125 302.492188 529.703125 301.769531 L 529.703125 295.3125 C 529.703125 294.445312 529.6875 293.886719 529.613281 293.652344 C 529.578125 293.453125 529.507812 293.328125 529.398438 293.238281 C 529.289062 293.148438 529.164062 293.09375 529 293.09375 C 528.785156 293.09375 528.476562 293.183594 528.101562 293.363281 "/>
<path style=" stroke:none;fill-rule: nonzero; fill: rgb(0%,0%,0%); fill-opacity: 1;" d="M 535.53125 297.964844 C 535.53125 296.609375 535.730469 295.4375 536.144531 294.445312 C 536.558594 293.472656 537.101562 292.734375 537.785156 292.246094 C 538.308594 291.867188 538.851562 291.6875 539.410156 291.6875 C 540.328125 291.6875 541.160156 292.15625 541.878906 293.074219 C 542.800781 294.230469 543.25 295.800781 543.25 297.785156 C 543.25 299.171875 543.054688 300.34375 542.65625 301.320312 C 542.257812 302.292969 541.734375 302.996094 541.121094 303.429688 C 540.507812 303.863281 539.894531 304.058594 539.335938 304.058594 C 538.183594 304.058594 537.246094 303.410156 536.488281 302.058594 C 535.835938 300.941406 535.53125 299.570312 535.53125 297.964844 Z M 537.246094 298.199219 C 537.246094 299.839844 537.460938 301.175781 537.859375 302.21875 C 538.199219 303.085938 538.6875 303.519531 539.355469 303.519531 C 539.679688 303.519531 540.003906 303.394531 540.347656 303.105469 C 540.691406 302.816406 540.941406 302.347656 541.121094 301.660156 C 541.394531 300.652344 541.519531 299.246094 541.519531 297.40625 C 541.519531 296.035156 541.375 294.898438 541.105469 293.996094 C 540.886719 293.308594 540.617188 292.839844 540.273438 292.550781 C 540.039062 292.355469 539.75 292.265625 539.410156 292.265625 C 539.011719 292.265625 538.652344 292.445312 538.34375 292.804688 C 537.910156 293.292969 537.625 294.050781 537.480469 295.097656 C 537.335938 296.140625 537.246094 297.171875 537.246094 298.199219 "/>
<path style="fill: none; stroke-width: 13.875; stroke-linecap: square; stroke-linejoin: miter; stroke: rgb(0%,0%,0%); stroke-opacity: 1;stroke-miterlimit: 10; " d="M 2809.6875 187.304688 L 2809.6875 5362.695312 " transform="matrix(0.1,0,0,-0.1,0,555)"/>
<path style="fill: none; stroke-width: 13.875; stroke-linecap: square; stroke-linejoin: miter; stroke: rgb(0%,0%,0%); stroke-opacity: 1;stroke-miterlimit: 10; " d="M 2809.6875 450.9375 L 2768.046875 450.9375 " transform="matrix(0.1,0,0,-0.1,0,555)"/>
<path style="fill: none; stroke-width: 13.875; stroke-linecap: square; stroke-linejoin: miter; stroke: rgb(0%,0%,0%); stroke-opacity: 1;stroke-miterlimit: 10; " d="M 2809.6875 700.703125 L 2768.046875 700.703125 " transform="matrix(0.1,0,0,-0.1,0,555)"/>
<path style="fill: none; stroke-width: 13.875; stroke-linecap: square; stroke-linejoin: miter; stroke: rgb(0%,0%,0%); stroke-opacity: 1;stroke-miterlimit: 10; " d="M 2809.6875 964.296875 L 2768.046875 964.296875 " transform="matrix(0.1,0,0,-0.1,0,555)"/>
<path style="fill: none; stroke-width: 13.875; stroke-linecap: square; stroke-linejoin: miter; stroke: rgb(0%,0%,0%); stroke-opacity: 1;stroke-miterlimit: 10; " d="M 2809.6875 1227.929688 L 2768.046875 1227.929688 " transform="matrix(0.1,0,0,-0.1,0,555)"/>
<path style="fill: none; stroke-width: 13.875; stroke-linecap: square; stroke-linejoin: miter; stroke: rgb(0%,0%,0%); stroke-opacity: 1;stroke-miterlimit: 10; " d="M 2809.6875 1741.328125 L 2768.046875 1741.328125 " transform="matrix(0.1,0,0,-0.1,0,555)"/>
<path style="fill: none; stroke-width: 13.875; stroke-linecap: square; stroke-linejoin: miter; stroke: rgb(0%,0%,0%); stroke-opacity: 1;stroke-miterlimit: 10; " d="M 2809.6875 2004.921875 L 2768.046875 2004.921875 " transform="matrix(0.1,0,0,-0.1,0,555)"/>
<path style="fill: none; stroke-width: 13.875; stroke-linecap: square; stroke-linejoin: miter; stroke: rgb(0%,0%,0%); stroke-opacity: 1;stroke-miterlimit: 10; " d="M 2809.6875 2254.6875 L 2768.046875 2254.6875 " transform="matrix(0.1,0,0,-0.1,0,555)"/>
<path style="fill: none; stroke-width: 13.875; stroke-linecap: square; stroke-linejoin: miter; stroke: rgb(0%,0%,0%); stroke-opacity: 1;stroke-miterlimit: 10; " d="M 2809.6875 2518.320312 L 2768.046875 2518.320312 " transform="matrix(0.1,0,0,-0.1,0,555)"/>
<path style="fill: none; stroke-width: 13.875; stroke-linecap: square; stroke-linejoin: miter; stroke: rgb(0%,0%,0%); stroke-opacity: 1;stroke-miterlimit: 10; " d="M 2809.6875 3031.679688 L 2768.046875 3031.679688 " transform="matrix(0.1,0,0,-0.1,0,555)"/>
<path style="fill: none; stroke-width: 13.875; stroke-linecap: square; stroke-linejoin: miter; stroke: rgb(0%,0%,0%); stroke-opacity: 1;stroke-miterlimit: 10; " d="M 2809.6875 3295.3125 L 2768.046875 3295.3125 " transform="matrix(0.1,0,0,-0.1,0,555)"/>
<path style="fill: none; stroke-width: 13.875; stroke-linecap: square; stroke-linejoin: miter; stroke: rgb(0%,0%,0%); stroke-opacity: 1;stroke-miterlimit: 10; " d="M 2809.6875 3545.078125 L 2768.046875 3545.078125 " transform="matrix(0.1,0,0,-0.1,0,555)"/>
<path style="fill: none; stroke-width: 13.875; stroke-linecap: square; stroke-linejoin: miter; stroke: rgb(0%,0%,0%); stroke-opacity: 1;stroke-miterlimit: 10; " d="M 2809.6875 3808.671875 L 2768.046875 3808.671875 " transform="matrix(0.1,0,0,-0.1,0,555)"/>
<path style="fill: none; stroke-width: 13.875; stroke-linecap: square; stroke-linejoin: miter; stroke: rgb(0%,0%,0%); stroke-opacity: 1;stroke-miterlimit: 10; " d="M 2809.6875 4322.070312 L 2768.046875 4322.070312 " transform="matrix(0.1,0,0,-0.1,0,555)"/>
<path style="fill: none; stroke-width: 13.875; stroke-linecap: square; stroke-linejoin: miter; stroke: rgb(0%,0%,0%); stroke-opacity: 1;stroke-miterlimit: 10; " d="M 2809.6875 4585.703125 L 2768.046875 4585.703125 " transform="matrix(0.1,0,0,-0.1,0,555)"/>
<path style="fill: none; stroke-width: 13.875; stroke-linecap: square; stroke-linejoin: miter; stroke: rgb(0%,0%,0%); stroke-opacity: 1;stroke-miterlimit: 10; " d="M 2809.6875 4849.296875 L 2768.046875 4849.296875 " transform="matrix(0.1,0,0,-0.1,0,555)"/>
<path style="fill: none; stroke-width: 13.875; stroke-linecap: square; stroke-linejoin: miter; stroke: rgb(0%,0%,0%); stroke-opacity: 1;stroke-miterlimit: 10; " d="M 2809.6875 5099.0625 L 2768.046875 5099.0625 " transform="matrix(0.1,0,0,-0.1,0,555)"/>
<path style="fill: none; stroke-width: 13.875; stroke-linecap: square; stroke-linejoin: miter; stroke: rgb(0%,0%,0%); stroke-opacity: 1;stroke-miterlimit: 10; " d="M 2809.6875 187.304688 L 2726.445312 187.304688 " transform="matrix(0.1,0,0,-0.1,0,555)"/>
</g>
<g clip-path="url(#clip9)" clip-rule="nonzero">
<path style=" stroke:none;fill-rule: nonzero; fill: rgb(0%,0%,0%); fill-opacity: 1;" d="M 233.390625 537.570312 L 245.296875 537.570312 L 245.296875 536.632812 L 233.390625 536.632812 L 233.390625 537.570312 Z M 233.390625 537.570312 "/>
</g>
<g clip-path="url(#clip10)" clip-rule="nonzero">
<path style=" stroke:none;fill-rule: nonzero; fill: rgb(0%,0%,0%); fill-opacity: 1;" d="M 244.921875 531.742188 L 247.828125 530.335938 L 248.113281 530.335938 L 248.113281 540.421875 C 248.113281 541.085938 248.132812 541.503906 248.207031 541.664062 C 248.257812 541.828125 248.367188 541.953125 248.546875 542.042969 C 248.726562 542.132812 249.070312 542.1875 249.613281 542.1875 L 249.613281 542.511719 L 245.121094 542.511719 L 245.121094 542.1875 C 245.699219 542.1875 246.058594 542.132812 246.222656 542.042969 C 246.382812 541.972656 246.492188 541.84375 246.5625 541.699219 C 246.636719 541.554688 246.652344 541.140625 246.652344 540.421875 L 246.652344 533.960938 C 246.652344 533.097656 246.636719 532.539062 246.5625 532.304688 C 246.527344 532.105469 246.457031 531.980469 246.347656 531.886719 C 246.238281 531.796875 246.113281 531.742188 245.949219 531.742188 C 245.734375 531.742188 245.425781 531.835938 245.046875 532.015625 "/>
<path style=" stroke:none;fill-rule: nonzero; fill: rgb(0%,0%,0%); fill-opacity: 1;" d="M 252.785156 545.507812 L 252.785156 545.128906 C 253.398438 544.910156 253.867188 544.605469 254.195312 544.191406 C 254.519531 543.773438 254.699219 543.324219 254.699219 542.855469 C 254.699219 542.746094 254.664062 542.65625 254.609375 542.566406 C 254.574219 542.511719 254.535156 542.511719 254.480469 542.511719 C 254.429688 542.511719 254.285156 542.546875 254.066406 542.675781 C 253.960938 542.730469 253.851562 542.746094 253.726562 542.746094 C 253.453125 542.746094 253.21875 542.65625 253.039062 542.511719 C 252.875 542.351562 252.785156 542.117188 252.785156 541.808594 C 252.785156 541.519531 252.894531 541.269531 253.128906 541.070312 C 253.347656 540.871094 253.617188 540.761719 253.921875 540.761719 C 254.320312 540.761719 254.664062 540.925781 254.96875 541.269531 C 255.257812 541.609375 255.421875 542.042969 255.421875 542.585938 C 255.421875 543.199219 255.203125 543.757812 254.789062 544.28125 C 254.375 544.804688 253.707031 545.199219 252.785156 545.507812 "/>
<path style=" stroke:none;fill-rule: nonzero; fill: rgb(0%,0%,0%); fill-opacity: 1;" d="M 256.988281 536.613281 C 256.988281 535.261719 257.1875 534.089844 257.601562 533.097656 C 258.019531 532.121094 258.558594 531.382812 259.246094 530.894531 C 259.765625 530.515625 260.308594 530.335938 260.867188 530.335938 C 261.789062 530.335938 262.617188 530.804688 263.339844 531.726562 C 264.257812 532.878906 264.710938 534.449219 264.710938 536.433594 C 264.710938 537.824219 264.511719 538.996094 264.113281 539.96875 C 263.71875 540.941406 263.195312 541.648438 262.582031 542.078125 C 261.96875 542.511719 261.355469 542.710938 260.796875 542.710938 C 259.640625 542.710938 258.703125 542.0625 257.945312 540.707031 C 257.296875 539.589844 256.988281 538.21875 256.988281 536.613281 Z M 258.703125 536.847656 C 258.703125 538.488281 258.917969 539.824219 259.316406 540.871094 C 259.660156 541.738281 260.144531 542.167969 260.8125 542.167969 C 261.136719 542.167969 261.460938 542.042969 261.804688 541.753906 C 262.148438 541.464844 262.402344 540.996094 262.582031 540.3125 C 262.851562 539.300781 262.976562 537.894531 262.976562 536.054688 C 262.976562 534.683594 262.832031 533.546875 262.5625 532.644531 C 262.347656 531.960938 262.074219 531.492188 261.734375 531.203125 C 261.5 531.003906 261.210938 530.914062 260.867188 530.914062 C 260.472656 530.914062 260.109375 531.09375 259.804688 531.457031 C 259.371094 531.941406 259.082031 532.699219 258.9375 533.746094 C 258.792969 534.792969 258.703125 535.820312 258.703125 536.847656 "/>
<path style="fill: none; stroke-width: 13.875; stroke-linecap: square; stroke-linejoin: miter; stroke: rgb(0%,0%,0%); stroke-opacity: 1;stroke-miterlimit: 10; " d="M 2809.6875 1477.695312 L 2726.445312 1477.695312 " transform="matrix(0.1,0,0,-0.1,0,555)"/>
</g>
<g clip-path="url(#clip11)" clip-rule="nonzero">
<path style=" stroke:none;fill-rule: nonzero; fill: rgb(0%,0%,0%); fill-opacity: 1;" d="M 233.390625 407.144531 L 245.296875 407.144531 L 245.296875 406.207031 L 233.390625 406.207031 L 233.390625 407.144531 Z M 233.390625 407.144531 "/>
</g>
<g clip-path="url(#clip12)" clip-rule="nonzero">
<path style=" stroke:none;fill-rule: nonzero; fill: rgb(0%,0%,0%); fill-opacity: 1;" d="M 243.460938 406.191406 C 243.460938 404.835938 243.660156 403.664062 244.074219 402.671875 C 244.488281 401.699219 245.03125 400.957031 245.714844 400.472656 C 246.238281 400.09375 246.78125 399.914062 247.339844 399.914062 C 248.257812 399.914062 249.089844 400.382812 249.8125 401.300781 C 250.730469 402.457031 251.179688 404.023438 251.179688 406.007812 C 251.179688 407.398438 250.984375 408.570312 250.585938 409.542969 C 250.1875 410.519531 249.667969 411.222656 249.054688 411.65625 C 248.441406 412.089844 247.828125 412.285156 247.265625 412.285156 C 246.113281 412.285156 245.175781 411.636719 244.417969 410.285156 C 243.769531 409.164062 243.460938 407.796875 243.460938 406.191406 Z M 245.175781 406.425781 C 245.175781 408.066406 245.390625 409.402344 245.789062 410.445312 C 246.132812 411.3125 246.617188 411.746094 247.285156 411.746094 C 247.609375 411.746094 247.933594 411.617188 248.277344 411.332031 C 248.621094 411.042969 248.871094 410.574219 249.054688 409.886719 C 249.324219 408.878906 249.449219 407.46875 249.449219 405.628906 C 249.449219 404.257812 249.304688 403.125 249.035156 402.222656 C 248.820312 401.535156 248.546875 401.066406 248.207031 400.777344 C 247.972656 400.578125 247.683594 400.488281 247.339844 400.488281 C 246.941406 400.488281 246.582031 400.671875 246.273438 401.03125 C 245.84375 401.519531 245.554688 402.277344 245.410156 403.320312 C 245.265625 404.367188 245.175781 405.394531 245.175781 406.425781 "/>
<path style=" stroke:none;fill-rule: nonzero; fill: rgb(0%,0%,0%); fill-opacity: 1;" d="M 252.785156 415.082031 L 252.785156 414.703125 C 253.398438 414.488281 253.867188 414.179688 254.195312 413.765625 C 254.519531 413.351562 254.699219 412.898438 254.699219 412.429688 C 254.699219 412.324219 254.664062 412.230469 254.609375 412.140625 C 254.574219 412.089844 254.535156 412.089844 254.480469 412.089844 C 254.429688 412.089844 254.285156 412.125 254.066406 412.25 C 253.960938 412.304688 253.851562 412.324219 253.726562 412.324219 C 253.453125 412.324219 253.21875 412.230469 253.039062 412.089844 C 252.875 411.925781 252.785156 411.691406 252.785156 411.382812 C 252.785156 411.097656 252.894531 410.84375 253.128906 410.644531 C 253.347656 410.445312 253.617188 410.339844 253.921875 410.339844 C 254.320312 410.339844 254.664062 410.5 254.96875 410.84375 C 255.257812 411.1875 255.421875 411.617188 255.421875 412.160156 C 255.421875 412.773438 255.203125 413.332031 254.789062 413.855469 C 254.375 414.378906 253.707031 414.777344 252.785156 415.082031 "/>
<path style=" stroke:none;fill-rule: nonzero; fill: rgb(0%,0%,0%); fill-opacity: 1;" d="M 264.167969 400.148438 L 263.464844 401.644531 L 259.875 401.644531 L 259.101562 403.25 C 260.652344 403.484375 261.878906 404.0625 262.796875 404.980469 C 263.574219 405.792969 263.96875 406.730469 263.96875 407.8125 C 263.96875 408.445312 263.84375 409.023438 263.589844 409.542969 C 263.320312 410.085938 263.015625 410.535156 262.617188 410.914062 C 262.238281 411.292969 261.804688 411.601562 261.320312 411.816406 C 260.652344 412.125 259.964844 412.285156 259.246094 412.285156 C 258.523438 412.285156 258.019531 412.160156 257.675781 411.945312 C 257.351562 411.691406 257.1875 411.4375 257.1875 411.132812 C 257.1875 410.96875 257.261719 410.824219 257.40625 410.699219 C 257.53125 410.574219 257.710938 410.519531 257.910156 410.519531 C 258.054688 410.519531 258.199219 410.535156 258.304688 410.589844 C 258.414062 410.628906 258.613281 410.753906 258.902344 410.953125 C 259.335938 411.242188 259.785156 411.402344 260.234375 411.402344 C 260.921875 411.402344 261.515625 411.148438 262.039062 410.628906 C 262.5625 410.105469 262.816406 409.472656 262.816406 408.714844 C 262.816406 407.992188 262.597656 407.324219 262.128906 406.695312 C 261.660156 406.082031 261.03125 405.59375 260.199219 405.25 C 259.570312 404.980469 258.703125 404.835938 257.585938 404.800781 L 259.875 400.148438 "/>
<path style="fill: none; stroke-width: 13.875; stroke-linecap: square; stroke-linejoin: miter; stroke: rgb(0%,0%,0%); stroke-opacity: 1;stroke-miterlimit: 10; " d="M 2809.6875 2768.046875 L 2726.445312 2768.046875 " transform="matrix(0.1,0,0,-0.1,0,555)"/>
<path style="fill: none; stroke-width: 13.875; stroke-linecap: square; stroke-linejoin: miter; stroke: rgb(0%,0%,0%); stroke-opacity: 1;stroke-miterlimit: 10; " d="M 2809.6875 4072.304688 L 2726.445312 4072.304688 " transform="matrix(0.1,0,0,-0.1,0,555)"/>
<path style=" stroke:none;fill-rule: nonzero; fill: rgb(0%,0%,0%); fill-opacity: 1;" d="M 243.460938 148.113281 C 243.460938 146.761719 243.660156 145.589844 244.074219 144.597656 C 244.488281 143.621094 245.03125 142.882812 245.714844 142.394531 C 246.238281 142.015625 246.78125 141.835938 247.339844 141.835938 C 248.257812 141.835938 249.089844 142.304688 249.8125 143.226562 C 250.730469 144.378906 251.179688 145.949219 251.179688 147.933594 C 251.179688 149.320312 250.984375 150.496094 250.585938 151.46875 C 250.1875 152.441406 249.667969 153.144531 249.054688 153.578125 C 248.441406 154.011719 247.828125 154.210938 247.265625 154.210938 C 246.113281 154.210938 245.175781 153.5625 244.417969 152.207031 C 243.769531 151.089844 243.460938 149.71875 243.460938 148.113281 Z M 245.175781 148.347656 C 245.175781 149.988281 245.390625 151.324219 245.789062 152.371094 C 246.132812 153.238281 246.617188 153.667969 247.285156 153.667969 C 247.609375 153.667969 247.933594 153.542969 248.277344 153.253906 C 248.621094 152.964844 248.871094 152.496094 249.054688 151.8125 C 249.324219 150.800781 249.449219 149.394531 249.449219 147.554688 C 249.449219 146.183594 249.304688 145.046875 249.035156 144.144531 C 248.820312 143.460938 248.546875 142.992188 248.207031 142.703125 C 247.972656 142.503906 247.683594 142.414062 247.339844 142.414062 C 246.941406 142.414062 246.582031 142.59375 246.273438 142.953125 C 245.84375 143.441406 245.554688 144.199219 245.410156 145.246094 C 245.265625 146.292969 245.175781 147.320312 245.175781 148.347656 "/>
<path style=" stroke:none;fill-rule: nonzero; fill: rgb(0%,0%,0%); fill-opacity: 1;" d="M 252.785156 157.007812 L 252.785156 156.628906 C 253.398438 156.410156 253.867188 156.105469 254.195312 155.691406 C 254.519531 155.273438 254.699219 154.824219 254.699219 154.355469 C 254.699219 154.246094 254.664062 154.15625 254.609375 154.066406 C 254.574219 154.011719 254.535156 154.011719 254.480469 154.011719 C 254.429688 154.011719 254.285156 154.046875 254.066406 154.175781 C 253.960938 154.226562 253.851562 154.246094 253.726562 154.246094 C 253.453125 154.246094 253.21875 154.15625 253.039062 154.011719 C 252.875 153.851562 252.785156 153.613281 252.785156 153.308594 C 252.785156 153.019531 252.894531 152.765625 253.128906 152.570312 C 253.347656 152.371094 253.617188 152.261719 253.921875 152.261719 C 254.320312 152.261719 254.664062 152.425781 254.96875 152.765625 C 255.257812 153.109375 255.421875 153.542969 255.421875 154.085938 C 255.421875 154.699219 255.203125 155.257812 254.789062 155.78125 C 254.375 156.304688 253.707031 156.699219 252.785156 157.007812 "/>
<path style=" stroke:none;fill-rule: nonzero; fill: rgb(0%,0%,0%); fill-opacity: 1;" d="M 264.167969 142.070312 L 263.464844 143.566406 L 259.875 143.566406 L 259.101562 145.171875 C 260.652344 145.40625 261.878906 145.984375 262.796875 146.90625 C 263.574219 147.71875 263.96875 148.65625 263.96875 149.738281 C 263.96875 150.367188 263.84375 150.945312 263.589844 151.46875 C 263.320312 152.011719 263.015625 152.460938 262.617188 152.839844 C 262.238281 153.21875 261.804688 153.523438 261.320312 153.742188 C 260.652344 154.046875 259.964844 154.210938 259.246094 154.210938 C 258.523438 154.210938 258.019531 154.085938 257.675781 153.867188 C 257.351562 153.613281 257.1875 153.363281 257.1875 153.054688 C 257.1875 152.894531 257.261719 152.75 257.40625 152.625 C 257.53125 152.496094 257.710938 152.441406 257.910156 152.441406 C 258.054688 152.441406 258.199219 152.460938 258.304688 152.515625 C 258.414062 152.550781 258.613281 152.675781 258.902344 152.875 C 259.335938 153.164062 259.785156 153.328125 260.234375 153.328125 C 260.921875 153.328125 261.515625 153.074219 262.039062 152.550781 C 262.5625 152.027344 262.816406 151.398438 262.816406 150.640625 C 262.816406 149.917969 262.597656 149.25 262.128906 148.617188 C 261.660156 148.003906 261.03125 147.519531 260.199219 147.175781 C 259.570312 146.90625 258.703125 146.761719 257.585938 146.726562 L 259.875 142.070312 "/>
<path style="fill: none; stroke-width: 13.875; stroke-linecap: square; stroke-linejoin: miter; stroke: rgb(0%,0%,0%); stroke-opacity: 1;stroke-miterlimit: 10; " d="M 2809.6875 5362.695312 L 2726.445312 5362.695312 " transform="matrix(0.1,0,0,-0.1,0,555)"/>
<path style=" stroke:none;fill-rule: nonzero; fill: rgb(0%,0%,0%); fill-opacity: 1;" d="M 244.921875 14.207031 L 247.828125 12.800781 L 248.113281 12.800781 L 248.113281 22.882812 C 248.113281 23.550781 248.132812 23.964844 248.207031 24.128906 C 248.257812 24.289062 248.367188 24.414062 248.546875 24.507812 C 248.726562 24.597656 249.070312 24.648438 249.613281 24.648438 L 249.613281 24.976562 L 245.121094 24.976562 L 245.121094 24.648438 C 245.699219 24.648438 246.058594 24.597656 246.222656 24.507812 C 246.382812 24.433594 246.492188 24.308594 246.5625 24.164062 C 246.636719 24.019531 246.652344 23.605469 246.652344 22.882812 L 246.652344 16.425781 C 246.652344 15.558594 246.636719 15 246.5625 14.765625 C 246.527344 14.566406 246.457031 14.441406 246.347656 14.351562 C 246.238281 14.261719 246.113281 14.207031 245.949219 14.207031 C 245.734375 14.207031 245.425781 14.296875 245.046875 14.476562 "/>
<path style=" stroke:none;fill-rule: nonzero; fill: rgb(0%,0%,0%); fill-opacity: 1;" d="M 252.785156 27.96875 L 252.785156 27.589844 C 253.398438 27.375 253.867188 27.066406 254.195312 26.652344 C 254.519531 26.238281 254.699219 25.785156 254.699219 25.316406 C 254.699219 25.210938 254.664062 25.121094 254.609375 25.027344 C 254.574219 24.976562 254.535156 24.976562 254.480469 24.976562 C 254.429688 24.976562 254.285156 25.011719 254.066406 25.136719 C 253.960938 25.191406 253.851562 25.210938 253.726562 25.210938 C 253.453125 25.210938 253.21875 25.121094 253.039062 24.976562 C 252.875 24.8125 252.785156 24.578125 252.785156 24.273438 C 252.785156 23.984375 252.894531 23.730469 253.128906 23.53125 C 253.347656 23.332031 253.617188 23.226562 253.921875 23.226562 C 254.320312 23.226562 254.664062 23.386719 254.96875 23.730469 C 255.257812 24.074219 255.421875 24.507812 255.421875 25.046875 C 255.421875 25.660156 255.203125 26.21875 254.789062 26.742188 C 254.375 27.265625 253.707031 27.664062 252.785156 27.96875 "/>
<path style=" stroke:none;fill-rule: nonzero; fill: rgb(0%,0%,0%); fill-opacity: 1;" d="M 256.988281 19.078125 C 256.988281 17.722656 257.1875 16.550781 257.601562 15.558594 C 258.019531 14.585938 258.558594 13.847656 259.246094 13.359375 C 259.765625 12.980469 260.308594 12.800781 260.867188 12.800781 C 261.789062 12.800781 262.617188 13.269531 263.339844 14.1875 C 264.257812 15.34375 264.710938 16.914062 264.710938 18.894531 C 264.710938 20.285156 264.511719 21.457031 264.113281 22.433594 C 263.71875 23.40625 263.195312 24.109375 262.582031 24.542969 C 261.96875 24.976562 261.355469 25.171875 260.796875 25.171875 C 259.640625 25.171875 258.703125 24.523438 257.945312 23.171875 C 257.296875 22.054688 256.988281 20.683594 256.988281 19.078125 Z M 258.703125 19.3125 C 258.703125 20.953125 258.917969 22.289062 259.316406 23.332031 C 259.660156 24.199219 260.144531 24.632812 260.8125 24.632812 C 261.136719 24.632812 261.460938 24.507812 261.804688 24.21875 C 262.148438 23.929688 262.402344 23.460938 262.582031 22.773438 C 262.851562 21.765625 262.976562 20.355469 262.976562 18.515625 C 262.976562 17.148438 262.832031 16.011719 262.5625 15.109375 C 262.347656 14.421875 262.074219 13.953125 261.734375 13.664062 C 261.5 13.46875 261.210938 13.375 260.867188 13.375 C 260.472656 13.375 260.109375 13.558594 259.804688 13.917969 C 259.371094 14.40625 259.082031 15.164062 258.9375 16.207031 C 258.792969 17.253906 258.703125 18.28125 258.703125 19.3125 "/>
</g>
</g>
</svg>
