<?xml version="1.0" encoding="UTF-8"?>
<svg xmlns="http://www.w3.org/2000/svg" xmlns:xlink="http://www.w3.org/1999/xlink" fill-opacity="1" color-rendering="auto" color-interpolation="auto" text-rendering="auto" stroke="black" stroke-linecap="square" width="391" stroke-miterlimit="10" shape-rendering="auto" stroke-opacity="1" fill="black" stroke-dasharray="none" font-weight="normal" stroke-width="1" height="141" font-family="'Dialog'" font-style="normal" stroke-linejoin="miter" font-size="12" stroke-dashoffset="0" image-rendering="auto">
  <!--Generated by ySVG-->
  <defs id="genericDefs"/>
  <g>
    <defs id="defs1">
      <clipPath clipPathUnits="userSpaceOnUse" id="clipPath1">
        <path d="M0 0 L391 0 L391 141 L0 141 L0 0 Z"/>
      </clipPath>
      <clipPath clipPathUnits="userSpaceOnUse" id="clipPath2">
        <path d="M-15 -15 L376 -15 L376 126 L-15 126 L-15 -15 Z"/>
      </clipPath>
    </defs>
    <g fill="white" transform="translate(15,15)" stroke="white">
      <rect x="-15" y="-15" clip-path="url(#clipPath2)" width="391" height="141" stroke="none"/>
    </g>
    <g fill="rgb(111,125,188)" transform="matrix(1,0,0,1,15,15)" stroke="rgb(111,125,188)">
      <rect x="20" y="22.5" clip-path="url(#clipPath2)" width="100" rx="4" ry="4" height="55" stroke="none"/>
      <text x="51" y="40.4023" clip-path="url(#clipPath2)" fill="black" font-family="sans-serif" stroke="none" xml:space="preserve">MapSY</text>
      <text x="53" y="54.5352" clip-path="url(#clipPath2)" fill="black" font-family="sans-serif" stroke="none" xml:space="preserve">"map"</text>
      <text x="21" y="68.668" clip-path="url(#clipPath2)" fill="black" font-family="sans-serif" stroke="none" xml:space="preserve">fName=addOnef</text>
    </g>
    <g stroke-miterlimit="1.45" transform="matrix(1,0,0,1,15,15)" stroke-linecap="butt">
      <rect x="20" y="22.5" clip-path="url(#clipPath2)" fill="none" width="100" rx="4" ry="4" height="55"/>
    </g>
    <g fill="rgb(255,147,76)" transform="matrix(1,0,0,1,15,15)" stroke="rgb(255,147,76)">
      <path d="M160 50 L210 0 L260 50 L210 100 Z" clip-path="url(#clipPath2)" fill-rule="evenodd" stroke="none"/>
      <text x="187.5" y="40.4023" clip-path="url(#clipPath2)" fill="black" font-family="sans-serif" stroke="none" xml:space="preserve">DelaySY</text>
      <text x="190.5" y="54.5352" clip-path="url(#clipPath2)" fill="black" font-family="sans-serif" stroke="none" xml:space="preserve">"delay"</text>
      <text x="193" y="68.668" clip-path="url(#clipPath2)" fill="black" font-family="sans-serif" stroke="none" xml:space="preserve">val=1</text>
    </g>
    <g stroke-miterlimit="1.45" transform="matrix(1,0,0,1,15,15)" stroke-linecap="butt">
      <path fill="none" d="M160 50 L210 0 L260 50 L210 100 Z" clip-path="url(#clipPath2)" fill-rule="evenodd"/>
      <rect stroke-linecap="square" x="320" y="46.5" clip-path="url(#clipPath2)" width="7" height="7" stroke="none" stroke-miterlimit="10"/>
      <text stroke-linecap="square" x="333" y="54.5352" clip-path="url(#clipPath2)" font-family="sans-serif" stroke="none" xml:space="preserve" stroke-miterlimit="10">out1</text>
      <rect x="320" y="46.5" clip-path="url(#clipPath2)" fill="none" width="7" height="7"/>
      <path fill="none" d="M260 50 L280 50 L280 110.5 L0 110.5 L0 50 L11.9609 50" clip-path="url(#clipPath2)"/>
      <path d="M19.9609 50 L7.9609 45 L10.9609 50 L7.9609 55 Z" clip-path="url(#clipPath2)" stroke="none"/>
      <path fill="none" d="M120 50 L152 50" clip-path="url(#clipPath2)"/>
      <path d="M160 50 L148 45 L151 50 L148 55 Z" clip-path="url(#clipPath2)" stroke="none"/>
      <path fill="none" d="M260 50 L311.9707 50" clip-path="url(#clipPath2)"/>
      <path d="M319.9707 50 L307.9707 45 L310.9707 50 L307.9707 55 Z" clip-path="url(#clipPath2)" stroke="none"/>
    </g>
  </g>
</svg>
