<?xml version="1.0" encoding="UTF-8"?>
<svg xmlns="http://www.w3.org/2000/svg" xmlns:xlink="http://www.w3.org/1999/xlink" fill-opacity="1" color-rendering="auto" color-interpolation="auto" text-rendering="auto" stroke="black" stroke-linecap="square" width="132" stroke-miterlimit="10" shape-rendering="auto" stroke-opacity="1" fill="black" stroke-dasharray="none" font-weight="normal" stroke-width="1" height="136" font-family="'Dialog'" font-style="normal" stroke-linejoin="miter" font-size="12" stroke-dashoffset="0" image-rendering="auto">
  <!--Generated by ySVG-->
  <defs id="genericDefs"/>
  <g>
    <defs id="defs1">
      <clipPath clipPathUnits="userSpaceOnUse" id="clipPath1">
        <path d="M0 0 L132 0 L132 136 L0 136 L0 0 Z"/>
      </clipPath>
      <clipPath clipPathUnits="userSpaceOnUse" id="clipPath2">
        <path d="M-16 -21 L116 -21 L116 115 L-16 115 L-16 -21 Z"/>
      </clipPath>
    </defs>
    <g fill="white" transform="translate(16,21)" stroke="white">
      <rect x="-16" y="-21" clip-path="url(#clipPath2)" width="132" height="136" stroke="none"/>
    </g>
    <g fill="rgb(111,125,188)" transform="matrix(1,0,0,1,16,21)" stroke="rgb(111,125,188)">
      <rect x="0" y="0" clip-path="url(#clipPath2)" width="100" rx="4" ry="4" height="55" stroke="none"/>
      <text x="31" y="17.9023" clip-path="url(#clipPath2)" fill="black" font-family="sans-serif" stroke="none" xml:space="preserve">MapSY</text>
      <text x="33" y="32.0352" clip-path="url(#clipPath2)" fill="black" font-family="sans-serif" stroke="none" xml:space="preserve">"map"</text>
      <text x="1" y="46.168" clip-path="url(#clipPath2)" fill="black" font-family="sans-serif" stroke="none" xml:space="preserve">fName=addOnef</text>
    </g>
    <g stroke-miterlimit="1.45" transform="matrix(1,0,0,1,16,21)" stroke-linecap="butt">
      <rect x="0" y="0" clip-path="url(#clipPath2)" fill="none" width="100" rx="4" ry="4" height="55"/>
    </g>
    <g fill="rgb(255,147,76)" transform="matrix(1,0,0,1,16,21)" stroke="rgb(255,147,76)">
      <path d="M0 50 L50 0 L100 50 L50 100 Z" clip-path="url(#clipPath2)" fill-rule="evenodd" stroke="none"/>
      <text x="27.5" y="40.4023" clip-path="url(#clipPath2)" fill="black" font-family="sans-serif" stroke="none" xml:space="preserve">DelaySY</text>
      <text x="30.5" y="54.5352" clip-path="url(#clipPath2)" fill="black" font-family="sans-serif" stroke="none" xml:space="preserve">"delay"</text>
      <text x="33" y="68.668" clip-path="url(#clipPath2)" fill="black" font-family="sans-serif" stroke="none" xml:space="preserve">val=1</text>
    </g>
    <g stroke-miterlimit="1.45" transform="matrix(1,0,0,1,16,21)" stroke-linecap="butt">
      <path fill="none" d="M0 50 L50 0 L100 50 L50 100 Z" clip-path="url(#clipPath2)" fill-rule="evenodd"/>
      <rect stroke-linecap="square" x="0" y="0" clip-path="url(#clipPath2)" width="7" height="7" stroke="none" stroke-miterlimit="10"/>
      <text stroke-linecap="square" x="13" y="8.0352" clip-path="url(#clipPath2)" font-family="sans-serif" stroke="none" xml:space="preserve" stroke-miterlimit="10">out1</text>
      <rect x="0" y="0" clip-path="url(#clipPath2)" fill="none" width="7" height="7"/>
      <path fill="none" d="M100 50 L14.2609 10.1313" clip-path="url(#clipPath2)"/>
      <path d="M7.0068 6.7582 L15.7798 16.3517 L15.1677 10.553 L19.9962 7.2841 Z" clip-path="url(#clipPath2)" stroke="none"/>
    </g>
  </g>
</svg>
